<svg xmlns="http://www.w3.org/2000/svg" width="1520" height="280"><path d="M780,227L697,283L788,301Z" fill="#418852" stroke="#418852" stroke-width="1.51"/><path d="M780,227L678,199L697,283Z" fill="#4e9c5b" stroke="#4e9c5b" stroke-width="1.51"/><path d="M697,283L773,377L788,301Z" fill="#408350" stroke="#408350" stroke-width="1.51"/><path d="M788,301L885,273L780,227Z" fill="#38864e" stroke="#38864e" stroke-width="1.51"/><path d="M874,362L885,273L788,301Z" fill="#327d49" stroke="#327d49" stroke-width="1.51"/><path d="M697,283L734,432L773,377Z" fill="#428451" stroke="#428451" stroke-width="1.51"/><path d="M678,199L601,299L697,283Z" fill="#519359" stroke="#519359" stroke-width="1.51"/><path d="M780,227L731,59L678,199Z" fill="#6dbf72" stroke="#6dbf72" stroke-width="1.51"/><path d="M885,273L881,195L780,227Z" fill="#3c9553" stroke="#3c9553" stroke-width="1.51"/><path d="M773,377L874,362L788,301Z" fill="#377f4c" stroke="#377f4c" stroke-width="1.51"/><path d="M588,402L734,432L697,283Z" fill="#4c8854" stroke="#4c8854" stroke-width="1.51"/><path d="M773,377L799,525L874,362Z" fill="#377f4c" stroke="#377f4c" stroke-width="1.51"/><path d="M678,199L567,187L601,299Z" fill="#60a562" stroke="#60a562" stroke-width="1.51"/><path d="M608,109L567,187L678,199Z" fill="#7bc577" stroke="#7bc577" stroke-width="1.51"/><path d="M601,299L588,402L697,283Z" fill="#528a56" stroke="#528a56" stroke-width="1.51"/><path d="M513,316L588,402L601,299Z" fill="#5a8d59" stroke="#5a8d59" stroke-width="1.51"/><path d="M802,56L731,59L780,227Z" fill="#8bce80" stroke="#8bce80" stroke-width="1.51"/><path d="M731,59L608,109L678,199Z" fill="#92d283" stroke="#92d283" stroke-width="1.51"/><path d="M734,432L799,525L773,377Z" fill="#3e824f" stroke="#3e824f" stroke-width="1.51"/><path d="M588,402L734,485L734,432Z" fill="#4a8753" stroke="#4a8753" stroke-width="1.51"/><path d="M881,195L802,56L780,227Z" fill="#62ba6c" stroke="#62ba6c" stroke-width="1.51"/><path d="M567,187L513,316L601,299Z" fill="#5d955c" stroke="#5d955c" stroke-width="1.51"/><path d="M885,273L988,200L881,195Z" fill="#339550" stroke="#339550" stroke-width="1.51"/><path d="M881,195L905,62L802,56Z" fill="#87ca7c" stroke="#87ca7c" stroke-width="1.51"/><path d="M1013,331L988,200L885,273Z" fill="#227b44" stroke="#227b44" stroke-width="1.51"/><path d="M988,200L905,62L881,195Z" fill="#58b668" stroke="#58b668" stroke-width="1.51"/><path d="M734,485L799,525L734,432Z" fill="#3f834f" stroke="#3f834f" stroke-width="1.51"/><path d="M874,362L1013,331L885,273Z" fill="#267844" stroke="#267844" stroke-width="1.51"/><path d="M622,555L799,525L734,485Z" fill="#458552" stroke="#458552" stroke-width="1.51"/><path d="M1023,470L1013,331L874,362Z" fill="#207441" stroke="#207441" stroke-width="1.51"/><path d="M588,402L622,555L734,485Z" fill="#4f8955" stroke="#4f8955" stroke-width="1.51"/><path d="M513,316L503,393L588,402Z" fill="#5e8f5b" stroke="#5e8f5b" stroke-width="1.51"/><path d="M731,59L645,8L608,109Z" fill="#bce397" stroke="#bce397" stroke-width="1.51"/><path d="M532,52L457,195L567,187Z" fill="#96d284" stroke="#96d284" stroke-width="1.51"/><path d="M680,-41L645,8L731,59Z" fill="#c6e7ad" stroke="#c6e7ad" stroke-width="1.51"/><path d="M680,-41L731,59L802,56Z" fill="#bee3a0" stroke="#bee3a0" stroke-width="1.51"/><path d="M905,62L855,7L802,56Z" fill="#aada8f" stroke="#aada8f" stroke-width="1.51"/><path d="M567,187L457,195L513,316Z" fill="#6ca966" stroke="#6ca966" stroke-width="1.51"/><path d="M513,316L383,330L503,393Z" fill="#66925e" stroke="#66925e" stroke-width="1.51"/><path d="M532,52L567,187L608,109Z" fill="#a5da8a" stroke="#a5da8a" stroke-width="1.51"/><path d="M905,62L911,17L855,7Z" fill="#aad892" stroke="#aad892" stroke-width="1.51"/><path d="M1019,89L911,17L905,62Z" fill="#99d184" stroke="#99d184" stroke-width="1.51"/><path d="M645,8L532,52L608,109Z" fill="#c6e89b" stroke="#c6e89b" stroke-width="1.51"/><path d="M495,495L622,555L588,402Z" fill="#5a8d59" stroke="#5a8d59" stroke-width="1.51"/><path d="M645,8L538,13L532,52Z" fill="#d4edaa" stroke="#d4edaa" stroke-width="1.51"/><path d="M855,7L680,-41L802,56Z" fill="#bae1a8" stroke="#bae1a8" stroke-width="1.51"/><path d="M698,-111L680,-41L787,-127Z" fill="#c2e5b0" stroke="#c2e5b0" stroke-width="1.51"/><path d="M1152,220L1019,89L988,200Z" fill="#3ea258" stroke="#3ea258" stroke-width="1.51"/><path d="M988,200L1019,89L905,62Z" fill="#70be70" stroke="#70be70" stroke-width="1.51"/><path d="M532,52L415,164L457,195Z" fill="#a2d88a" stroke="#a2d88a" stroke-width="1.51"/><path d="M513,-86L538,13L601,-134Z" fill="#d9efba" stroke="#d9efba" stroke-width="1.51"/><path d="M799,525L956,527L874,362Z" fill="#2e7b47" stroke="#2e7b47" stroke-width="1.51"/><path d="M622,555L956,527L799,525Z" fill="#3a804d" stroke="#3a804d" stroke-width="1.51"/><path d="M503,393L495,495L588,402Z" fill="#5f8f5b" stroke="#5f8f5b" stroke-width="1.51"/><path d="M366,413L495,495L503,393Z" fill="#67935f" stroke="#67935f" stroke-width="1.51"/><path d="M956,527L1023,470L874,362Z" fill="#217642" stroke="#217642" stroke-width="1.51"/><path d="M1013,331L1092,299L988,200Z" fill="#1b703e" stroke="#1b703e" stroke-width="1.51"/><path d="M1137,363L1092,299L1013,331Z" fill="#17693a" stroke="#17693a" stroke-width="1.51"/><path d="M457,195L383,330L513,316Z" fill="#68935f" stroke="#68935f" stroke-width="1.51"/><path d="M414,49L415,164L532,52Z" fill="#c5e899" stroke="#c5e899" stroke-width="1.51"/><path d="M1023,470L1069,428L1013,331Z" fill="#1b6e3d" stroke="#1b6e3d" stroke-width="1.51"/><path d="M415,164L383,330L457,195Z" fill="#78af6c" stroke="#78af6c" stroke-width="1.51"/><path d="M601,-134L538,13L645,8Z" fill="#d3edb8" stroke="#d3edb8" stroke-width="1.51"/><path d="M787,-127L680,-41L855,7Z" fill="#bbe2ad" stroke="#bbe2ad" stroke-width="1.51"/><path d="M935,-171L787,-127L855,7Z" fill="#b1dca6" stroke="#b1dca6" stroke-width="1.51"/><path d="M991,-57L855,7L911,17Z" fill="#a9d8a2" stroke="#a9d8a2" stroke-width="1.51"/><path d="M538,13L414,49L532,52Z" fill="#daf0a6" stroke="#daf0a6" stroke-width="1.51"/><path d="M251,224L298,331L383,330Z" fill="#759866" stroke="#759866" stroke-width="1.51"/><path d="M513,-86L414,49L538,13Z" fill="#e0f2be" stroke="#e0f2be" stroke-width="1.51"/><path d="M1069,428L1137,363L1013,331Z" fill="#176a3a" stroke="#176a3a" stroke-width="1.51"/><path d="M1092,299L1152,220L988,200Z" fill="#1c7e42" stroke="#1c7e42" stroke-width="1.51"/><path d="M1019,89L991,-57L911,17Z" fill="#a2d294" stroke="#a2d294" stroke-width="1.51"/><path d="M1126,6L991,-57L1019,89Z" fill="#9ccb90" stroke="#9ccb90" stroke-width="1.51"/><path d="M1227,333L1152,220L1092,299Z" fill="#106235" stroke="#106235" stroke-width="1.51"/><path d="M383,330L366,413L503,393Z" fill="#6b9561" stroke="#6b9561" stroke-width="1.51"/><path d="M298,331L366,413L383,330Z" fill="#729764" stroke="#729764" stroke-width="1.51"/><path d="M1152,220L1107,71L1019,89Z" fill="#5fae64" stroke="#5fae64" stroke-width="1.51"/><path d="M601,-134L680,-41L698,-111Z" fill="#cbe9b4" stroke="#cbe9b4" stroke-width="1.51"/><path d="M601,-134L645,8L680,-41Z" fill="#cdeab5" stroke="#cdeab5" stroke-width="1.51"/><path d="M787,-127L601,-134L698,-111Z" fill="#c6e7b2" stroke="#c6e7b2" stroke-width="1.51"/><path d="M495,495L377,510L622,555Z" fill="#62915d" stroke="#62915d" stroke-width="1.51"/><path d="M366,413L377,510L495,495Z" fill="#6b9561" stroke="#6b9561" stroke-width="1.51"/><path d="M366,413L290,413L377,510Z" fill="#729764" stroke="#729764" stroke-width="1.51"/><path d="M251,224L383,330L415,164Z" fill="#7cad6d" stroke="#7cad6d" stroke-width="1.51"/><path d="M1107,71L1126,6L1019,89Z" fill="#8ec27a" stroke="#8ec27a" stroke-width="1.51"/><path d="M1230,83L1126,6L1107,71Z" fill="#89bb75" stroke="#89bb75" stroke-width="1.51"/><path d="M291,59L251,224L415,164Z" fill="#a9da8e" stroke="#a9da8e" stroke-width="1.51"/><path d="M513,-86L375,-21L414,49Z" fill="#e6f5c1" stroke="#e6f5c1" stroke-width="1.51"/><path d="M378,-120L375,-21L513,-86Z" fill="#e7f6c1" stroke="#e7f6c1" stroke-width="1.51"/><path d="M787,-127L935,-171L601,-134Z" fill="#bbe2ad" stroke="#bbe2ad" stroke-width="1.51"/><path d="M991,-57L935,-171L855,7Z" fill="#a8d7a1" stroke="#a8d7a1" stroke-width="1.51"/><path d="M1027,-122L935,-171L991,-57Z" fill="#a3d29c" stroke="#a3d29c" stroke-width="1.51"/><path d="M298,331L290,413L366,413Z" fill="#749866" stroke="#749866" stroke-width="1.51"/><path d="M1112,-117L1027,-122L991,-57Z" fill="#9ecc98" stroke="#9ecc98" stroke-width="1.51"/><path d="M1023,470L1176,490L1069,428Z" fill="#166839" stroke="#166839" stroke-width="1.51"/><path d="M1069,428L1176,490L1137,363Z" fill="#136537" stroke="#136537" stroke-width="1.51"/><path d="M1137,363L1227,333L1092,299Z" fill="#106335" stroke="#106335" stroke-width="1.51"/><path d="M956,527L1176,490L1023,470Z" fill="#196c3c" stroke="#196c3c" stroke-width="1.51"/><path d="M1276,401L1227,333L1137,363Z" fill="#0b5e33" stroke="#0b5e33" stroke-width="1.51"/><path d="M1152,220L1225,161L1107,71Z" fill="#469f59" stroke="#469f59" stroke-width="1.51"/><path d="M1227,333L1225,161L1152,220Z" fill="#12743c" stroke="#12743c" stroke-width="1.51"/><path d="M291,59L415,164L414,49Z" fill="#cdeb9d" stroke="#cdeb9d" stroke-width="1.51"/><path d="M298,331L207,409L290,413Z" fill="#789a68" stroke="#789a68" stroke-width="1.51"/><path d="M375,-21L291,59L414,49Z" fill="#ebf7b3" stroke="#ebf7b3" stroke-width="1.51"/><path d="M1225,161L1230,83L1107,71Z" fill="#6aac66" stroke="#6aac66" stroke-width="1.51"/><path d="M1126,6L1112,-117L991,-57Z" fill="#9bc896" stroke="#9bc896" stroke-width="1.51"/><path d="M1306,119L1230,83L1225,161Z" fill="#59a25f" stroke="#59a25f" stroke-width="1.51"/><path d="M1236,-119L1112,-117L1126,6Z" fill="#95bf90" stroke="#95bf90" stroke-width="1.51"/><path d="M1027,-122L1112,-117L935,-171Z" fill="#9fcd9a" stroke="#9fcd9a" stroke-width="1.51"/><path d="M375,-21L244,-40L291,59Z" fill="#f2fac9" stroke="#f2fac9" stroke-width="1.51"/><path d="M601,-134L378,-120L513,-86Z" fill="#dff2bd" stroke="#dff2bd" stroke-width="1.51"/><path d="M251,-132L378,-120L601,-134Z" fill="#e9f6c2" stroke="#e9f6c2" stroke-width="1.51"/><path d="M207,409L253,497L290,413Z" fill="#799a69" stroke="#799a69" stroke-width="1.51"/><path d="M290,413L253,497L377,510Z" fill="#759966" stroke="#759966" stroke-width="1.51"/><path d="M377,510L142,519L622,555Z" fill="#6f9663" stroke="#6f9663" stroke-width="1.51"/><path d="M1227,333L1318,273L1225,161Z" fill="#076837" stroke="#076837" stroke-width="1.51"/><path d="M1176,490L1276,401L1137,363Z" fill="#0d6034" stroke="#0d6034" stroke-width="1.51"/><path d="M192,192L202,330L251,224Z" fill="#84ad73" stroke="#84ad73" stroke-width="1.51"/><path d="M251,224L202,330L298,331Z" fill="#799a69" stroke="#799a69" stroke-width="1.51"/><path d="M202,330L207,409L298,331Z" fill="#7a9b6a" stroke="#7a9b6a" stroke-width="1.51"/><path d="M291,59L192,192L251,224Z" fill="#a8d98e" stroke="#a8d98e" stroke-width="1.51"/><path d="M202,330L102,381L207,409Z" fill="#7e9c6f" stroke="#7e9c6f" stroke-width="1.51"/><path d="M187,87L192,192L291,59Z" fill="#cae99f" stroke="#cae99f" stroke-width="1.51"/><path d="M1458,536L1258,512L956,527Z" fill="#0a5d33" stroke="#0a5d33" stroke-width="1.51"/><path d="M956,527L1258,512L1176,490Z" fill="#136536" stroke="#136536" stroke-width="1.51"/><path d="M1176,490L1258,512L1276,401Z" fill="#095d33" stroke="#095d33" stroke-width="1.51"/><path d="M1374,451L1318,273L1276,401Z" fill="#015730" stroke="#015730" stroke-width="1.51"/><path d="M1276,401L1318,273L1227,333Z" fill="#055a32" stroke="#055a32" stroke-width="1.51"/><path d="M1230,83L1272,-6L1126,6Z" fill="#8fba7e" stroke="#8fba7e" stroke-width="1.51"/><path d="M1355,151L1306,119L1225,161Z" fill="#449757" stroke="#449757" stroke-width="1.51"/><path d="M244,-40L187,87L291,59Z" fill="#f3fbb6" stroke="#f3fbb6" stroke-width="1.51"/><path d="M378,-120L244,-40L375,-21Z" fill="#f0f9c6" stroke="#f0f9c6" stroke-width="1.51"/><path d="M1306,119L1272,-6L1230,83Z" fill="#7db06e" stroke="#7db06e" stroke-width="1.51"/><path d="M1258,512L1320,502L1276,401Z" fill="#045a31" stroke="#045a31" stroke-width="1.51"/><path d="M1306,119L1346,-24L1272,-6Z" fill="#88b279" stroke="#88b279" stroke-width="1.51"/><path d="M1318,273L1355,151L1225,161Z" fill="#1e8043" stroke="#1e8043" stroke-width="1.51"/><path d="M1419,199L1355,151L1318,273Z" fill="#15743c" stroke="#15743c" stroke-width="1.51"/><path d="M1272,-6L1236,-119L1126,6Z" fill="#92bb8e" stroke="#92bb8e" stroke-width="1.51"/><path d="M1112,-117L1236,-119L935,-171Z" fill="#9ac694" stroke="#9ac694" stroke-width="1.51"/><path d="M1346,-24L1236,-119L1272,-6Z" fill="#8db68b" stroke="#8db68b" stroke-width="1.51"/><path d="M251,-132L196,-42L244,-40Z" fill="#f8fccd" stroke="#f8fccd" stroke-width="1.51"/><path d="M244,-40L196,-42L187,87Z" fill="#fafdcd" stroke="#fafdcd" stroke-width="1.51"/><path d="M378,-120L251,-132L244,-40Z" fill="#f3fbc9" stroke="#f3fbc9" stroke-width="1.51"/><path d="M935,-171L251,-132L601,-134Z" fill="#d3edb8" stroke="#d3edb8" stroke-width="1.51"/><path d="M1320,502L1374,451L1276,401Z" fill="#015730" stroke="#015730" stroke-width="1.51"/><path d="M97,201L96,322L192,192Z" fill="#8ab37d" stroke="#8ab37d" stroke-width="1.51"/><path d="M192,192L96,322L202,330Z" fill="#7e9c6f" stroke="#7e9c6f" stroke-width="1.51"/><path d="M207,409L142,519L253,497Z" fill="#7d9c6c" stroke="#7d9c6c" stroke-width="1.51"/><path d="M97,201L192,192L187,87Z" fill="#acda94" stroke="#acda94" stroke-width="1.51"/><path d="M49,43L97,201L187,87Z" fill="#d0ecab" stroke="#d0ecab" stroke-width="1.51"/><path d="M96,322L102,381L202,330Z" fill="#7f9d72" stroke="#7f9d72" stroke-width="1.51"/><path d="M102,381L142,519L207,409Z" fill="#7e9d71" stroke="#7e9d71" stroke-width="1.51"/><path d="M253,497L142,519L377,510Z" fill="#789a69" stroke="#789a69" stroke-width="1.51"/><path d="M1417,44L1346,-24L1306,119Z" fill="#80ab70" stroke="#80ab70" stroke-width="1.51"/><path d="M1417,44L1306,119L1355,151Z" fill="#609e60" stroke="#609e60" stroke-width="1.51"/><path d="M1481,332L1419,199L1318,273Z" fill="#005530" stroke="#005530" stroke-width="1.51"/><path d="M1419,199L1417,44L1355,151Z" fill="#4a9257" stroke="#4a9257" stroke-width="1.51"/><path d="M196,-42L49,43L187,87Z" fill="#f9fcc2" stroke="#f9fcc2" stroke-width="1.51"/><path d="M251,-132L161,-136L196,-42Z" fill="#fafdcf" stroke="#fafdcf" stroke-width="1.51"/><path d="M935,-171L161,-136L251,-132Z" fill="#e4f4c0" stroke="#e4f4c0" stroke-width="1.51"/><path d="M97,201L-17,262L96,322Z" fill="#85a87f" stroke="#85a87f" stroke-width="1.51"/><path d="M-6,413L43,514L102,381Z" fill="#809d7c" stroke="#809d7c" stroke-width="1.51"/><path d="M96,-82L49,43L196,-42Z" fill="#fdfed8" stroke="#fdfed8" stroke-width="1.51"/><path d="M1374,451L1481,332L1318,273Z" fill="#00502d" stroke="#00502d" stroke-width="1.51"/><path d="M1525,107L1463,-58L1417,44Z" fill="#80a171" stroke="#80a171" stroke-width="1.51"/><path d="M161,-136L96,-82L196,-42Z" fill="#fcfed4" stroke="#fcfed4" stroke-width="1.51"/><path d="M102,381L43,514L142,519Z" fill="#7f9d77" stroke="#7f9d77" stroke-width="1.51"/><path d="M142,519L-44,529L622,555Z" fill="#7a9b6a" stroke="#7a9b6a" stroke-width="1.51"/><path d="M-6,413L102,381L96,322Z" fill="#809d7a" stroke="#809d7a" stroke-width="1.51"/><path d="M1236,-119L1452,-149L935,-171Z" fill="#92bc8e" stroke="#92bc8e" stroke-width="1.51"/><path d="M1346,-24L1383,-127L1236,-119Z" fill="#8bb28a" stroke="#8bb28a" stroke-width="1.51"/><path d="M1463,-58L1383,-127L1346,-24Z" fill="#87ab86" stroke="#87ab86" stroke-width="1.51"/><path d="M1463,-58L1346,-24L1417,44Z" fill="#86a986" stroke="#86a986" stroke-width="1.51"/><path d="M1458,536L1482,415L1374,451Z" fill="#004c2c" stroke="#004c2c" stroke-width="1.51"/><path d="M1374,451L1482,415L1481,332Z" fill="#004b2b" stroke="#004b2b" stroke-width="1.51"/><path d="M-19,222L-17,262L97,201Z" fill="#8fb98b" stroke="#8fb98b" stroke-width="1.51"/><path d="M96,-82L31,21L49,43Z" fill="#fefede" stroke="#fefede" stroke-width="1.51"/><path d="M1320,502L1458,536L1374,451Z" fill="#00512e" stroke="#00512e" stroke-width="1.51"/><path d="M1258,512L1458,536L1320,502Z" fill="#00552f" stroke="#00552f" stroke-width="1.51"/><path d="M622,555L1458,536L956,527Z" fill="#1c703e" stroke="#1c703e" stroke-width="1.51"/><path d="M-19,222L97,201L-2,81Z" fill="#a9d89f" stroke="#a9d89f" stroke-width="1.51"/><path d="M-17,262L-6,413L96,322Z" fill="#819e7e" stroke="#819e7e" stroke-width="1.51"/><path d="M-2,81L97,201L49,43Z" fill="#d3edb3" stroke="#d3edb3" stroke-width="1.51"/><path d="M31,21L-2,81L49,43Z" fill="#f5fbc8" stroke="#f5fbc8" stroke-width="1.51"/><path d="M1525,107L1417,44L1419,199Z" fill="#549059" stroke="#549059" stroke-width="1.51"/><path d="M1560,301L1419,199L1481,332Z" fill="#00492b" stroke="#00492b" stroke-width="1.51"/><path d="M1597,224L1525,107L1419,199Z" fill="#217642" stroke="#217642" stroke-width="1.51"/><path d="M1482,415L1560,301L1481,332Z" fill="#004629" stroke="#004629" stroke-width="1.51"/><path d="M1458,536L1524,447L1482,415Z" fill="#00482a" stroke="#00482a" stroke-width="1.51"/><path d="M1524,447L1560,301L1482,415Z" fill="#004529" stroke="#004529" stroke-width="1.51"/><path d="M31,21L-10,-37L-2,81Z" fill="#fdfed7" stroke="#fdfed7" stroke-width="1.51"/><path d="M-154,188L-17,262L-19,222Z" fill="#91bb8e" stroke="#91bb8e" stroke-width="1.51"/><path d="M96,-82L-10,-37L31,21Z" fill="#fffee1" stroke="#fffee1" stroke-width="1.51"/><path d="M-70,-102L-10,-37L96,-82Z" fill="#ffffe5" stroke="#ffffe5" stroke-width="1.51"/><path d="M1383,-127L1452,-149L1236,-119Z" fill="#89af88" stroke="#89af88" stroke-width="1.51"/><path d="M1463,-58L1452,-149L1383,-127Z" fill="#85a784" stroke="#85a784" stroke-width="1.51"/><path d="M1591,-167L1452,-149L1463,-58Z" fill="#82a081" stroke="#82a081" stroke-width="1.51"/><path d="M-6,413L-44,529L43,514Z" fill="#819e81" stroke="#819e81" stroke-width="1.51"/><path d="M43,514L-44,529L142,519Z" fill="#809d7c" stroke="#809d7c" stroke-width="1.51"/><path d="M-143,523L-44,529L-6,413Z" fill="#819e81" stroke="#819e81" stroke-width="1.51"/><path d="M-128,332L-6,413L-17,262Z" fill="#819e81" stroke="#819e81" stroke-width="1.51"/><path d="M-128,332L-17,262L-154,188Z" fill="#86a986" stroke="#86a986" stroke-width="1.51"/><path d="M1525,107L1620,22L1463,-58Z" fill="#7f9d73" stroke="#7f9d73" stroke-width="1.51"/><path d="M1560,301L1597,224L1419,199Z" fill="#025830" stroke="#025830" stroke-width="1.51"/><path d="M1637,187L1597,224L1704,309Z" fill="#025831" stroke="#025831" stroke-width="1.51"/><path d="M1524,447L1660,399L1560,301Z" fill="#004529" stroke="#004529" stroke-width="1.51"/><path d="M1458,536L1560,545L1524,447Z" fill="#004529" stroke="#004529" stroke-width="1.51"/><path d="M622,555L1560,545L1458,536Z" fill="#0b5e33" stroke="#0b5e33" stroke-width="1.51"/><path d="M-154,188L-19,222L-2,81Z" fill="#addaa4" stroke="#addaa4" stroke-width="1.51"/><path d="M1597,224L1637,187L1525,107Z" fill="#237743" stroke="#237743" stroke-width="1.51"/><path d="M1704,309L1597,224L1560,301Z" fill="#004629" stroke="#004629" stroke-width="1.51"/><path d="M-115,1L-129,70L-2,81Z" fill="#f5fbca" stroke="#f5fbca" stroke-width="1.51"/><path d="M161,-136L-70,-102L96,-82Z" fill="#fefede" stroke="#fefede" stroke-width="1.51"/><path d="M-115,1L-2,81L-10,-37Z" fill="#fefedc" stroke="#fefedc" stroke-width="1.51"/><path d="M-70,-102L-115,1L-10,-37Z" fill="#ffffe5" stroke="#ffffe5" stroke-width="1.51"/><path d="M-111,-97L-154,188L-129,70Z" fill="#f3fbc9" stroke="#f3fbc9" stroke-width="1.51"/><path d="M-129,70L-154,188L-2,81Z" fill="#d1ecb7" stroke="#d1ecb7" stroke-width="1.51"/><path d="M1680,95L1620,22L1525,107Z" fill="#6c9561" stroke="#6c9561" stroke-width="1.51"/><path d="M1560,545L1629,484L1524,447Z" fill="#004529" stroke="#004529" stroke-width="1.51"/><path d="M1620,22L1601,-58L1463,-58Z" fill="#819e81" stroke="#819e81" stroke-width="1.51"/><path d="M1629,484L1660,399L1524,447Z" fill="#004529" stroke="#004529" stroke-width="1.51"/><path d="M1637,187L1680,95L1525,107Z" fill="#478652" stroke="#478652" stroke-width="1.51"/><path d="M-175,361L-143,523L-6,413Z" fill="#819e81" stroke="#819e81" stroke-width="1.51"/><path d="M-175,361L-6,413L-128,332Z" fill="#819e81" stroke="#819e81" stroke-width="1.51"/><path d="M-154,188L-175,361L-128,332Z" fill="#819e81" stroke="#819e81" stroke-width="1.51"/><path d="M161,-136L-111,-97L-70,-102Z" fill="#ffffe5" stroke="#ffffe5" stroke-width="1.51"/><path d="M-70,-102L-111,-97L-115,1Z" fill="#ffffe5" stroke="#ffffe5" stroke-width="1.51"/><path d="M-115,1L-111,-97L-129,70Z" fill="#ffffe5" stroke="#ffffe5" stroke-width="1.51"/><path d="M1620,22L1636,-95L1601,-58Z" fill="#819e81" stroke="#819e81" stroke-width="1.51"/><path d="M1704,309L1680,95L1637,187Z" fill="#176a3a" stroke="#176a3a" stroke-width="1.51"/><path d="M1452,-149L1591,-167L935,-171Z" fill="#8bb289" stroke="#8bb289" stroke-width="1.51"/><path d="M1601,-58L1591,-167L1463,-58Z" fill="#819e81" stroke="#819e81" stroke-width="1.51"/><path d="M1636,-95L1591,-167L1601,-58Z" fill="#819e81" stroke="#819e81" stroke-width="1.51"/><path d="M1660,399L1704,309L1560,301Z" fill="#004529" stroke="#004529" stroke-width="1.51"/><path d="M1629,484L1704,309L1660,399Z" fill="#004529" stroke="#004529" stroke-width="1.51"/><path d="M1680,95L1636,-95L1620,22Z" fill="#819d7d" stroke="#819d7d" stroke-width="1.51"/></svg>